<svg width="20" height="18" viewBox="0 0 20 18" fill="none" xmlns="http://www.w3.org/2000/svg">
<path d="M16.84 4.34976H13.01C12.29 4.34976 11.62 3.96976 11.25 3.34976L10.6 2.25977C10.23 1.63977 9.56 1.25977 8.84 1.25977H2.81C1.67 1.25977 0.75 2.17976 0.75 3.31976V6.39975L0.75 6.7296C0.75 6.84389 0.75 6.62976 0.75 6.74976V14.2997C0.75 15.6297 1.83 16.7097 3.16 16.7097H16.84C18.17 16.7097 19.25 15.6297 19.25 14.2997V6.74976C19.25 5.42976 18.17 4.34976 16.84 4.34976Z" stroke-width="1.5" stroke-linecap="round" stroke-linejoin="round"/>
<path d="M16.84 4.34961H0.75V14.3196C0.75 15.6496 1.83 16.7296 3.16 16.7296H16.84C18.17 16.7296 19.25 15.6496 19.25 14.3196V6.76959C19.25 5.42959 18.17 4.34961 16.84 4.34961Z" stroke-width="1.5" stroke-linecap="round" stroke-linejoin="round"/>
</svg>
