<svg width="20" height="16" viewBox="0 0 20 16" fill="none" xmlns="http://www.w3.org/2000/svg">
<path d="M19.25 10.6804C19.25 8.54038 17.73 7.24039 17.64 7.16039C16.85 6.50039 15.85 6.14039 14.82 6.23039C14.44 6.26039 14.1 6.00039 14.07 5.62039C13.66 -0.889614 3.89996 -0.799615 3.74996 5.90038C3.73996 6.18038 3.57996 6.43038 3.31996 6.54038C1.47996 7.38038 0.41996 9.54039 0.84996 11.6704C1.09996 12.9004 1.90996 14.0804 3.03996 14.7004C3.98996 15.2204 4.87996 15.2104 5.29996 15.1804C8.68996 15.1704 12.08 15.1504 15.48 15.1404C17.66 15.1304 19.25 12.7204 19.25 10.6804Z" stroke-width="1.5" stroke-linecap="round" stroke-linejoin="round"/>
</svg>
