<svg width="20" height="20" viewBox="0 0 20 20" fill="none" xmlns="http://www.w3.org/2000/svg">
<path d="M10 6.40039C8.51005 6.40039 7.30005 7.21039 7.30005 8.20039C7.30005 9.19039 8.51005 10.0004 10 10.0004C11.49 10.0004 12.7001 10.8104 12.7001 11.8004C12.7001 12.7904 11.49 13.6004 10 13.6004" stroke-width="1.5" stroke-linecap="round" stroke-linejoin="round"/>
<path d="M10 6.40039V13.6004" stroke-width="1.5" stroke-linecap="round" stroke-linejoin="round"/>
<path d="M10 6.40039C11 6.40039 11.87 6.76039 12.34 7.30039L10 6.40039Z" stroke-width="1.5" stroke-linecap="round" stroke-linejoin="round"/>
<path d="M10 6.4V5.5" stroke-width="1.5" stroke-linecap="round" stroke-linejoin="round"/>
<path d="M10 13.5996V14.4996" stroke-width="1.5" stroke-linecap="round" stroke-linejoin="round"/>
<path d="M10.0002 13.6002C9.00016 13.6002 8.13016 13.2402 7.66016 12.7002L10.0002 13.6002Z" stroke-width="1.5" stroke-linecap="round" stroke-linejoin="round"/>
<path d="M19 10C19 11.18 18.77 12.35 18.31 13.44C17.86 14.53 17.19 15.52 16.36 16.36C15.52 17.2 14.53 17.86 13.44 18.31C12.35 18.77 11.18 19 10 19C8.82 19 7.65 18.77 6.56 18.31C5.47 17.85 4.48 17.19 3.64 16.36C2.8 15.52 2.14 14.53 1.69 13.44C1.23 12.35 1 11.18 1 10C1 7.61 1.95 5.32 3.64 3.64C5.32 1.95 7.61 1 10 1C12.39 1 14.68 1.95 16.36 3.64C18.05 5.32 19 7.61 19 10Z" stroke-width="1.5" stroke-linecap="round" stroke-linejoin="round"/>
</svg>
