<svg width="24" height="24" viewBox="0 0 24 24" fill="none" xmlns="http://www.w3.org/2000/svg">
<path d="M14.78 21.2498H9.21997V15.2998C9.21997 14.7498 9.66997 14.2998 10.22 14.2998H13.78C14.33 14.2998 14.78 14.7498 14.78 15.2998V21.2498V21.2498Z" stroke-width="1.5" stroke-linecap="round" stroke-linejoin="round"/>
<path d="M21.25 11.3901V18.1001C21.25 19.8401 19.91 21.2501 18.25 21.2501H5.75C4.09 21.2501 2.75 19.8401 2.75 18.1001V11.3901C2.75 10.4501 3.14 9.57012 3.83 8.97012L10.08 3.48012C11.19 2.50012 12.81 2.50012 13.92 3.48012L20.17 8.97012C20.86 9.57012 21.25 10.4501 21.25 11.3901Z" stroke-width="1.5" stroke-linecap="round" stroke-linejoin="round"/>
</svg>
