<svg width="20" height="21" viewBox="0 0 20 21" fill="none" xmlns="http://www.w3.org/2000/svg">
<path d="M18.35 3.99954C18.6363 4.28564 18.8632 4.62554 19.0177 4.99967C19.1722 5.3738 19.2511 5.77478 19.25 6.17954V16.1795C19.25 16.9973 18.9258 17.7818 18.3485 18.361C17.7712 18.9402 16.9878 19.2669 16.17 19.2695H3.83C3.0113 19.2643 2.22793 18.9353 1.65089 18.3545C1.07384 17.7737 0.749983 16.9883 0.75 16.1695V3.84954C0.75 3.03268 1.0745 2.24927 1.65211 1.67165C2.22972 1.09404 3.01313 0.769543 3.83 0.769543H13.83C14.2348 0.768441 14.6357 0.847391 15.0099 1.00185C15.384 1.15631 15.7239 1.38322 16.01 1.66954L18.35 3.99954Z" stroke-width="1.5" stroke-linecap="round" stroke-linejoin="round"/>
<path d="M5.88998 12.0498H14.11C14.6537 12.0498 15.1751 12.2658 15.5595 12.6503C15.944 13.0347 16.16 13.5561 16.16 14.0998V19.2398H3.82998V14.1098C3.82866 13.8389 3.88104 13.5705 3.98409 13.3199C4.08715 13.0694 4.23883 12.8418 4.43039 12.6502C4.62194 12.4587 4.84956 12.307 5.10009 12.2039C5.35062 12.1009 5.61909 12.0485 5.88998 12.0498V12.0498Z" stroke-width="1.5" stroke-linecap="round" stroke-linejoin="round"/>
<path d="M3.82996 0.759766V5.17977C3.82996 5.64124 4.01328 6.08382 4.33959 6.41013C4.6659 6.73644 5.10848 6.91977 5.56996 6.91977H12.37C12.8314 6.91977 13.274 6.73644 13.6003 6.41013C13.9266 6.08382 14.11 5.64124 14.11 5.17977V0.859766" stroke-width="1.5" stroke-linecap="round" stroke-linejoin="round"/>
<path d="M11.03 3.31934V4.34934" stroke-width="1.5" stroke-linecap="round" stroke-linejoin="round"/>
</svg>
