<svg width="24" height="24" viewBox="0 0 24 24" fill="none" xmlns="http://www.w3.org/2000/svg">
<path d="M19.1901 17.6299C17.4501 16.0699 14.8701 15.0898 12.0001 15.0898C9.13006 15.0898 6.55006 16.0799 4.81006 17.6299" stroke-width="1.5" stroke-linecap="round" stroke-linejoin="round"/>
<path d="M11.9999 12.0004C13.4193 12.0004 14.5699 10.8497 14.5699 9.43036C14.5699 8.01099 13.4193 6.86035 11.9999 6.86035C10.5806 6.86035 9.42993 8.01099 9.42993 9.43036C9.42993 10.8497 10.5806 12.0004 11.9999 12.0004Z" stroke-width="1.5" stroke-linecap="round" stroke-linejoin="round"/>
<path d="M12 21.25C17.1086 21.25 21.25 17.1086 21.25 12C21.25 6.89137 17.1086 2.75 12 2.75C6.89137 2.75 2.75 6.89137 2.75 12C2.75 17.1086 6.89137 21.25 12 21.25Z" stroke-width="1.5" stroke-linecap="round" stroke-linejoin="round"/>
</svg>
