<svg width="22" height="20" viewBox="0 0 22 20" fill="none" xmlns="http://www.w3.org/2000/svg">
<path d="M6.54995 17.87L10.38 13.53C10.4552 13.4386 10.5512 13.3666 10.66 13.32C10.7683 13.277 10.8834 13.2533 11 13.25C11.1166 13.252 11.2319 13.2758 11.34 13.32C11.4503 13.3689 11.5491 13.4404 11.63 13.53L15.45 17.87C15.5594 17.9853 15.6295 18.1323 15.65 18.29C15.6704 18.4492 15.6498 18.611 15.59 18.76C15.5242 18.9064 15.4174 19.0306 15.2825 19.1176C15.1477 19.2046 14.9904 19.2505 14.83 19.25H7.16995C7.00946 19.2505 6.85225 19.2046 6.71736 19.1176C6.58248 19.0306 6.47569 18.9064 6.40995 18.76C6.35015 18.611 6.32949 18.4492 6.34995 18.29C6.37042 18.1323 6.44046 17.9853 6.54995 17.87Z" stroke="#21232B" stroke-width="1.5" stroke-linecap="round" stroke-linejoin="round"/>
<path d="M18 16.2602C19.4699 14.5522 20.2789 12.3737 20.28 10.1202C20.2866 8.895 20.0518 7.68046 19.589 6.54597C19.1262 5.41148 18.4444 4.37926 17.5827 3.50824C16.721 2.63723 15.6961 1.94447 14.5666 1.46954C13.4372 0.9946 12.2252 0.746783 11 0.740234C8.52725 0.756101 6.16194 1.75295 4.42376 3.51176C2.68557 5.27057 1.71669 7.64748 1.72999 10.1202C1.72859 12.3754 2.53374 14.5568 3.99999 16.2702" stroke="#21232B" stroke-width="1.47" stroke-linecap="round" stroke-linejoin="round"/>
<path d="M5.99999 14.0002C5.2793 13.0596 4.8348 11.9369 4.71631 10.7579C4.59781 9.57889 4.81001 8.39017 5.32911 7.32497C5.84822 6.25977 6.65371 5.36019 7.65533 4.72703C8.65695 4.09388 9.8151 3.75218 11 3.74023C12.1849 3.75218 13.343 4.09388 14.3447 4.72703C15.3463 5.36019 16.1518 6.25977 16.6709 7.32497C17.19 8.39017 17.4022 9.57889 17.2837 10.7579C17.1652 11.9369 16.7207 13.0596 16 14.0002" stroke="#21232B" stroke-width="1.47" stroke-linecap="round" stroke-linejoin="round"/>
<path d="M13.6 12.1402C14.028 11.5612 14.2593 10.8603 14.26 10.1402C14.2706 9.70257 14.1945 9.26712 14.0362 8.85896C13.8779 8.45079 13.6404 8.07798 13.3374 7.76197C13.0344 7.44596 12.6719 7.193 12.2707 7.01765C11.8696 6.8423 11.4377 6.74802 11 6.74023C10.3833 6.76185 9.78437 6.95186 9.26803 7.28964C8.75168 7.62743 8.33765 8.10011 8.07082 8.65645C7.80398 9.21278 7.69452 9.83155 7.75431 10.4457C7.81409 11.0598 8.04084 11.6458 8.40997 12.1402" stroke-width="1.47" stroke-linecap="round" stroke-linejoin="round"/>
</svg>
